# xmcd CD database file
#
# Track frame offsets:
#	150
#	19593
#	39282
#	57465
#	77693
#	100552
#	124151
#	136690
#	159825
#	180986
#
# Disc length: 2673 seconds
#
# Revision: 0
# Processed by: cddbd v1.5.1PL2 Copyright (c) Steve Scherf et al.
# Submitted via: CDex 1.51
#
DISCID=680a6f0a
DTITLE=Michaela Rabitsch and Robert Pawlik - Just The Two Of Us
DYEAR=1900
DGENRE=Jazz
TTITLE0=In The First Days Of Springtime
TTITLE1=Moon In The Dark
TTITLE2=Just The Two Of Us
TTITLE3=Little Wing
TTITLE4=Time After Time
TTITLE5=This Masquerade
TTITLE6=Tren Numero Uno
TTITLE7=Stars In The Sky
TTITLE8=Sunday Afternoon
TTITLE9=Good Morning Vienna
EXTD=
EXTT0=
EXTT1=
EXTT2=
EXTT3=
EXTT4=
EXTT5=
EXTT6=
EXTT7=
EXTT8=
EXTT9=
PLAYORDER=
